<?xml version="1.0" encoding="utf-8"?>
<!-- Generator: Adobe Illustrator 16.2.1, SVG Export Plug-In . SVG Version: 6.00 Build 0)  -->
<!DOCTYPE svg PUBLIC "-//W3C//DTD SVG 1.1//EN" "http://www.w3.org/Graphics/SVG/1.1/DTD/svg11.dtd">

<svg viewBox="-419 -240 473 1114" version="1.1" xmlns="http://www.w3.org/2000/svg" xmlns:xlink="http://www.w3.org/1999/xlink">
    <!-- Generator: Sketch 39 (31667) - http://www.bohemiancoding.com/sketch -->
    <defs></defs>
    <g id="Group" stroke="none" stroke-width="1" fill="none" fill-rule="evenodd" transform="translate(-418.000000, -240.000000)">
        <polygon id="Path" fill="#006666" transform="translate(432.464001, 406.017887) rotate(117.000000) translate(-432.464001, -406.017887) " points="441.840373 437.675589 455.969382 374.360186 408.958621 398.126701"></polygon>
        <polygon id="Path-Copy-9" fill="#005B58" transform="translate(74.003682, 469.114132) rotate(56.000000) translate(-74.003682, -469.114132) " points="63.4388661 478.986827 105.855804 459.241437 42.1515602 464.5211"></polygon>
        <polygon id="Path-Copy-17" fill="#00AEA7" transform="translate(136.806368, 463.868947) rotate(-54.000000) translate(-136.806368, -463.868947) " points="140.094765 499.06582 150.957762 428.672074 122.654974 474.322091"></polygon>
        <polygon id="Path-Copy-38" fill="#008E89" points="200 90 150 140 175 158.553993"></polygon>
        <polygon id="Path-2" fill="#00AEA7" points="300 363.23643 300 399.999998 350 399.999998"></polygon>
        <polygon id="Path-2-Copy-28" fill="#00BDB6" transform="translate(354.343180, 217.762691) rotate(369.000000) translate(-354.343180, -217.762691) " points="381.031158 235.911539 327.655201 244.504152 345.71043 191.021231"></polygon>
        <polygon id="Path-2-Copy-22" fill="#006666" transform="translate(159.472046, 339.706963) rotate(-68.000000) translate(-159.472046, -339.706963) " points="177.746079 327.565265 131.386885 346.295595 187.557207 351.848661"></polygon>
        <polygon id="Path-2-Copy-6" fill="#005B58" transform="translate(100.140802, 230.685817) rotate(-34.000000) translate(-100.140802, -230.685817) " points="126.598272 210.170259 73.6833321 234.789581 98.6386235 251.201375"></polygon>
        <polygon id="Path-2-Copy-11" fill="#004A47" transform="translate(102.630195, 585.139178) rotate(-53.000000) translate(-102.630195, -585.139178) " points="116.044645 571.737299 62.2539556 556.251437 143.006435 614.026919"></polygon>
        <polygon id="Path-2-Copy-15" fill="#01BDB6" transform="translate(223.909586, 267.140052) rotate(117.000000) translate(-223.909586, -267.140052) " points="232.433149 233.515124 210.582346 300.764981 237.236825 287.18384"></polygon>
        <polygon id="Path-Copy-20" fill="#00BDB6" transform="translate(124.999999, 38.147537) rotate(-54.000000) translate(-124.999999, -38.147537) " points="121.499036 53.4934894 130.105786 65.3396637 119.894212 10.9554111"></polygon>
        <polygon id="Path-2-Copy-8" fill="#01827D" transform="translate(216.057834, 394.367331) rotate(71.000000) translate(-216.057834, -394.367331) " points="222.97893 360.852519 226.038447 427.882144 206.077221 407.893379"></polygon>
        <polygon id="Path-2-Copy-4" fill="#006666" transform="translate(141.885829, 506.735796) rotate(-68.000000) translate(-141.885829, -506.735796) " points="163.503127 492.617238 109.341067 493.845494 174.43059 520.854354"></polygon>
        <polygon id="Path-2-Copy-7" fill="#01827D" transform="translate(291.044761, 324.365165) rotate(-68.000000) translate(-291.044761, -324.365165) " points="261.172756 292.166037 279.903086 338.525229 320.916766 356.564292"></polygon>
        <polygon id="Path-2-Copy-26" fill="#01BDB6" transform="translate(259.234098, 330.526893) rotate(-149.000000) translate(-259.234098, -330.526893) " points="299.056303 330.526893 262.270254 317.650943 219.411894 343.402843"></polygon>
        <polygon id="Path-3" fill="#006666" transform="translate(132.788942, 32.909648) rotate(-34.000000) translate(-132.788942, -32.909648) " points="137.500751 56.7024916 109.286807 9.11680428 156.291077 28.844692"></polygon>
        <polygon id="Path-3-Copy-39" fill="#00AEA7" transform="translate(411.989686, 429.418765) rotate(-34.000000) translate(-411.989686, -429.418765) " points="436.865371 460.512574 387.114002 410.879887 418.500551 398.324956"></polygon>
        <polygon id="Path-3-Copy-29" fill="#00BDB6" points="100 724.523279 75 700 150 711.009966"></polygon>
        <polygon id="Path-3-Copy-11" fill="#01827D" transform="translate(325.382665, 399.052871) rotate(-68.000000) translate(-325.382665, -399.052871) " points="333.726314 422.232467 335.769342 378.153449 314.995987 375.873275"></polygon>
        <polygon id="Path-3-Copy-10" fill="#00BDB6" transform="translate(136.080757, 350.659221) rotate(71.000000) translate(-136.080757, -350.659221) " points="122.442793 378.888614 112.442793 322.429828 159.718721 338.708236"></polygon>
        <polygon id="Path-3-Copy-41" fill="#01BDB6" transform="translate(213.963156, 758.368393) rotate(-149.000000) translate(-213.963156, -758.368393) " points="192.533974 792.673529 209.640435 724.063257 235.392338 766.921622"></polygon>
        <polygon id="Path-3-Copy-42" fill="#004A47" transform="translate(60.247517, 316.693113) rotate(-34.000000) translate(-60.247517, -316.693113) " points="85.2475167 341.693114 35.2475176 291.693113 85.2475167 291.693113"></polygon>
        <polygon id="Path-3-Copy-38" fill="#01BDB6" transform="translate(125.847122, 218.955558) rotate(117.000000) translate(-125.847122, -218.955558) " points="114.921725 241.230721 92.2221986 196.680395 159.472046 218.955559"></polygon>
        <polygon id="Path-3-Copy-36" fill="#006666" transform="translate(300.297947, 525.865298) rotate(71.000000) translate(-300.297947, -525.865298) " points="261.296734 565.002022 339.29916 486.728574 275.744823 517.726095"></polygon>
        <polygon id="Path-3-Copy-17" fill="#005B58" transform="translate(76.910614, 772.875693) rotate(-54.000000) translate(-76.910614, -772.875693) " points="90.6131974 791.460234 63.7250102 754.992323 63.2080299 754.291153 84.3391372 771.810862"></polygon>
        <polygon id="Path-3-Copy-14" fill="#00AEA7" transform="translate(288.018577, 189.449607) rotate(117.000000) translate(-288.018577, -189.449607) " points="305.769059 223.074531 248.417301 196.180396 327.619854 155.824683"></polygon>
        <polygon id="Path-5-Copy-10" fill="#006666" transform="translate(260.449567, 171.563342) rotate(-53.000000) translate(-260.449567, -171.563342) " points="221.923353 151.072419 239.436691 176.676952 298.975782 192.054265"></polygon>
        <polygon id="Path-5-Copy-29" fill="#01BDB6" points="10.115326 439.95954 60 439.95954 60 489.95954"></polygon>
        <polygon id="Path-5-Copy-22" fill="#006666" transform="translate(380.724183, 222.383119) rotate(-28.000000) translate(-380.724183, -222.383119) " points="363.024488 232.924375 398.423879 265.399847 368.799293 179.366392"></polygon>
        <polygon id="Path-5-Copy-30" fill="#01BDB6" points="150 417.938864 250 390 200 422"></polygon>
        <polygon id="Path-5-Copy-3" fill="#01BDB6" transform="translate(60.247517, 316.693113) rotate(56.000000) translate(-60.247517, -316.693113) " points="35.2475174 291.693113 35.2475174 341.693114 85.2475174 341.693113"></polygon>
        <polygon id="Path-5-Copy-26" fill="#006666" transform="translate(97.619483, 654.629313) rotate(-68.000000) translate(-97.619483, -654.629313) " points="72.0278986 646.857114 105.752531 662.401513 123.211067 646.857114"></polygon>
        <polygon id="Path-5-Copy-24" fill="#01BDB6" transform="translate(39.213880, 138.899216) rotate(-28.000000) translate(-39.213880, -138.899216) " points="16.3268683 98.4157238 60.4742474 121.889302 62.1008925 179.382707"></polygon>
        <polygon id="Path-Copy-33" fill="#004A47" points="250 740 200 790 150 790"></polygon>
        <polygon id="Path-2-Copy-38" fill="#006D69" points="78.3954239 163.409613 50 163.409613 0 113.409613"></polygon>
        <polygon id="Path-2-Copy-36" fill="#00AEA7" points="150 139.999999 200 90.0000009 175 90.0000009"></polygon>
        <polygon id="Path-5-Copy-37" fill="#01827D" points="219.594553 290.370388 250 290.370387 200 266.214202"></polygon>
        <polygon id="Path-Copy-45" fill="#006666" transform="translate(374.815655, 651.814624) rotate(-21.000000) translate(-374.815655, -651.814624) " points="350.653742 675.098859 398.977568 659.145789 357.172471 628.530389"></polygon>
        <polygon id="Path-Copy-44" fill="#005B58" transform="translate(119.113465, 979.126900) rotate(-21.000000) translate(-119.113465, -979.126900) " points="120.742086 1003.18133 100.500877 974.2796 137.726053 955.07247"></polygon>
        <polygon id="Path-Copy-43" fill="#00AEA7" transform="translate(188.735674, 965.513695) rotate(-21.000000) translate(-188.735674, -965.513695) " points="193.204002 985.305594 197.005483 971.478817 180.465866 945.721796"></polygon>
        <polygon id="Path-Copy-42" fill="#008E89" transform="translate(255.000000, 684.276997) rotate(-21.000000) translate(-255.000000, -684.276997) " points="280 650 230 700 255 718.553993"></polygon>
        <polygon id="Path-2-Copy-61" fill="#00AEA7" transform="translate(216.791826, 1076.137058) rotate(-21.000000) translate(-216.791826, -1076.137058) " points="210.049496 1046.84505 187.561195 1105.42907 246.022457 1092.65368"></polygon>
        <polygon id="Path-2-Copy-60" fill="#00BDB6" transform="translate(400.007452, 799.795641) rotate(-21.000000) translate(-400.007452, -799.795641) " points="435.809584 791.526821 364.20532 826.537102 382.260549 773.05418"></polygon>
        <polygon id="Path-2-Copy-59" fill="#006666" transform="translate(240.127592, 878.789662) rotate(-21.000000) translate(-240.127592, -878.789662) " points="260.104658 855.450152 220.150527 893.840532 241.743173 902.129171"></polygon>
        <polygon id="Path-2-Copy-58" fill="#005B58" transform="translate(149.999999, 800.000001) rotate(-21.000000) translate(-149.999999, -800.000001) " points="103.320979 782.081603 160.512633 817.918399 196.67902 817.918398"></polygon>
        <polygon id="Path-2-Copy-56" fill="#01BDB6" transform="translate(305.010538, 842.990502) rotate(-21.000000) translate(-305.010538, -842.990502) " points="304.161426 831.220967 281.726599 826.544448 328.294478 859.436557"></polygon>
        <polygon id="Path-Copy-41" fill="#00BDB6" transform="translate(227.519009, 579.949608) rotate(-21.000000) translate(-227.519009, -579.949608) " points="214.183985 595.949608 250.854033 579.949608 204.183985 563.949608"></polygon>
        <polygon id="Path-2-Copy-55" fill="#00BDB6" transform="translate(121.196260, 558.781809) rotate(-21.000000) translate(-121.196260, -558.781809) " points="104.554962 537.516535 98.5062536 558.781809 143.886266 580.047083"></polygon>
        <polygon id="Path-2-Copy-54" fill="#01827D" transform="translate(306.382649, 966.287616) rotate(-21.000000) translate(-306.382649, -966.287616) " points="314.636907 926.974216 311.935143 1005.60102 298.128391 969.980369"></polygon>
        <polygon id="Path-2-Copy-53" fill="#006666" transform="translate(188.256457, 969.533236) rotate(-21.000000) translate(-188.256457, -969.533236) " points="181.857501 946.153979 191.857501 992.912494 194.655413 985.632895"></polygon>
        <polygon id="Path-2-Copy-52" fill="#01827D" transform="translate(400.427054, 809.234356) rotate(-21.000000) translate(-400.427054, -809.234356) " points="370.555049 777.035228 389.285379 823.39442 430.299059 841.433483"></polygon>
        <polygon id="Path-2-Copy-50" fill="#01BDB6" transform="translate(334.249060, 892.440470) rotate(-21.000000) translate(-334.249060, -892.440470) " points="346.244738 905.31642 342.624914 879.56452 322.253382 895.933113"></polygon>
        <polygon id="Path-3-Copy-4" fill="#006666" transform="translate(194.980270, 588.105339) rotate(-21.000000) translate(-194.980270, -588.105339) " points="215.251146 608.627504 174.709394 567.583174 204.961229 576.111249"></polygon>
        <polygon id="Path-3-Copy-69" fill="#00AEA7" transform="translate(80.935303, 776.866322) rotate(-21.000000) translate(-80.935303, -776.866322) " points="104.928814 790.188472 100.225884 779.811311 56.9417917 763.544172"></polygon>
        <polygon id="Path-3-Copy-68" fill="#00BDB6" transform="translate(272.369755, 518.147977) rotate(-21.000000) translate(-272.369755, -518.147977) " points="257.989443 493.188778 240.071045 543.107175 304.668464 511.107175"></polygon>
        <polygon id="Path-3-Copy-67" fill="#00BDB6" transform="translate(378.153823, 651.487825) rotate(-21.000000) translate(-378.153823, -651.487825) " points="357.22547 627.446829 399.082175 657.92779 392.32577 675.528822"></polygon>
        <polygon id="Path-3-Copy-66" fill="#01827D" transform="translate(362.367303, 909.226950) rotate(-21.000000) translate(-362.367303, -909.226950) " points="394.193809 931.327403 354.128074 896.180805 330.540797 887.126498"></polygon>
        <polygon id="Path-3-Copy-65" fill="#00BDB6" transform="translate(231.732565, 895.950519) rotate(-21.000000) translate(-231.732565, -895.950519) " points="198.211252 932.302562 213.748167 891.598477 265.253878 859.598477"></polygon>
        <polygon id="Path-3-Copy-62" fill="#004A47" transform="translate(132.507169, 861.094489) rotate(-21.000000) translate(-132.507169, -861.094489) " points="159.143359 903.430953 109.14336 853.430951 105.87098 818.758025"></polygon>
        <polygon id="Path-3-Copy-61" fill="#01BDB6" transform="translate(191.319047, 828.332306) rotate(-21.000000) translate(-191.319047, -828.332306) " points="209.576805 804.992795 173.061288 804.992795 191.658409 851.671816"></polygon>
        <polygon id="Path-3-Copy-60" fill="#006666" transform="translate(207.410150, 1072.316933) rotate(-21.000000) translate(-207.410150, -1072.316933) " points="244.149243 1095.45223 170.671056 1058.05436 208.353612 1049.18164"></polygon>
        <polygon id="Path-3-Copy-15" fill="#00AEA7" transform="translate(335.544178, 737.009803) rotate(-21.000000) translate(-335.544178, -737.009803) " points="348.140347 744.533593 316.921799 745.184824 354.166558 728.834781"></polygon>
        <polygon id="Path-5-Copy-57" fill="#006666" transform="translate(331.600064, 726.487110) rotate(-21.000000) translate(-331.600064, -726.487110) " points="343.02423 707.067584 313.067645 745.906636 350.132483 729.552205"></polygon>
        <polygon id="Path-5-Copy-56" fill="#01BDB6" transform="translate(122.575977, 972.454147) rotate(-21.000000) translate(-122.575977, -972.454147) " points="135.60562 953.404112 109.546334 943.400888 118.607152 1001.50741"></polygon>
        <polygon id="Path-5-Copy-54" fill="#01BDB6" transform="translate(307.415148, 948.359045) rotate(-21.000000) translate(-307.415148, -948.359045) " points="323.159762 956.160537 307.274363 928.03437 291.670535 968.683719"></polygon>
        <polygon id="Path-5-Copy-53" fill="#01BDB6" transform="translate(125.643676, 882.299002) rotate(-21.000000) translate(-125.643676, -882.299002) " points="116.286507 857.299002 85.0008454 867.331923 166.286507 907.299002"></polygon>
        <polygon id="Path-5-Copy-51" fill="#01BDB6" transform="translate(91.669514, 648.107381) rotate(-21.000000) translate(-91.669514, -648.107381) " points="76.2952177 664.91317 107.04381 631.301593 98.7684385 652.859671"></polygon>
        <polygon id="Path-2-Copy-48" fill="#006D69" transform="translate(112.493151, 705.528375) rotate(-21.000000) translate(-112.493151, -705.528375) " points="100.670661 710.12137 145.527621 724.130811 79.4586818 686.925939"></polygon>
        <polygon id="Path-2-Copy-47" fill="#00AEA7" transform="translate(255.000000, 675.000000) rotate(-21.000000) translate(-255.000000, -675.000000) " points="230 699.999999 280 650.000001 255 650.000001"></polygon>
        <polygon id="Path-5-Copy-50" fill="#01827D" transform="translate(305.068154, 842.987811) rotate(-21.000000) translate(-305.068154, -842.987811) " points="301.281802 850.657837 328.449059 859.473969 281.687249 826.501652"></polygon>
    </g>
</svg>
